<svg xmlns="http://www.w3.org/2000/svg" fill="none" viewBox="0 0 394 80"><path fill="#000" d="M262 0h68.5v12.7h-27.2v66.6h-13.6V12.7H262V0ZM149 0v12.7H94v20.4h44.3v12.6H94v21h55v12.6H80.5V0h68.7zm34.3 0h-17.8l63.8 79.4h17.9l-32-39.7 32-39.6h-17.9l-23 28.6-23-28.6zm18.3 56.7-9-11-27.1 33.7h17.8l18.3-22.7z"/><path fill="#000" d="M81 79.3 17 0H0v79.3h13.6V17l50.2 62.3H81Zm252.6-.4c-1 0-1.8-.4-2.5-1s-1.1-1.6-1.1-2.6.3-1.8 1-2.5 1.6-1 2.6-1 1.8.3 2.5 1a3.4 3.4 0 0 1 .6 4.3 3.7 3.7 0 0 1-3 1.8zm23.2-33.5h6.2c.3 0 .4.1.4.4v12.9c0 .3-.1.4-.4.4h-6.2c-.3 0-.4-.1-.4-.4V45.8c0-.3.1-.4.4-.4zm-22 0h6.2c.3 0 .5.1.5.4v12.9c0 .3-.2.4-.5.4h-6.2c-.3 0-.4-.1-.4-.4V45.8c0-.3.1-.4.4-.4zm-11.4 0h6.2c.3 0 .5.1.5.4v12.9c0 .3-.2.4-.5.4h-6.2c-.3 0-.4-.1-.4-.4V45.8c0-.3.1-.4.4-.4zm-11.4 0h6.2c.3 0 .4.1.4.4v12.9c0 .3-.1.4-.4.4h-6.2c-.3 0-.4-.1-.4-.4V45.8c0-.3.1-.4.4-.4z"/><path fill="url(#a)" d="m317.2 78.9-.4 1.2h.4l21.1-27.3-21.1-27.3h-.4l.4 1.2a50 50 0 0 1 2.3 14.8 50 50 0 0 1-2.3 14.8l21.1 27.3h.4l-.4-1.2a50 50 0 0 0 2.3-14.8 50 50 0 0 0-2.3-14.8l.4-1.2h-.4l-21.1 27.3z"/><defs><linearGradient id="a" x1="267.5" x2="342.8" y1="27.8" y2="27.8" gradientUnits="userSpaceOnUse"><stop/><stop offset="1" stop-opacity="0"/></linearGradient></defs></svg>
